<svg xmlns="http://www.w3.org/2000/svg" style="display: none;" xmlns:xlink="http://www.w3.org/1999/xlink">

  <symbol id="C" viewBox="0 0 240 260" preserveAspectRatio="xMinYMin meet">
    <!-- vertical and horizontal lines -->
    <g fill="none" stroke="currentColor" stroke-width="3" stroke-linecap="round" stroke-linejoin="round">
      <!-- chords -->
      <line x1="30"  y1="50" x2="30"  y2="240"/>
      <line x1="66"  y1="50" x2="66"  y2="240"/>
      <line x1="102" y1="50" x2="102" y2="240"/>
      <line x1="138" y1="50" x2="138" y2="240"/>
      <line x1="174" y1="50" x2="174" y2="240"/>
      <line x1="210" y1="50" x2="210" y2="240"/>

      <!-- 4 horizontal lines -->
      <line x1="30" y1="90"  x2="210" y2="90"/>
      <line x1="30" y1="130" x2="210" y2="130"/>
      <line x1="30" y1="170" x2="210" y2="170"/>
      <line x1="30" y1="210" x2="210" y2="210"/>
    </g>

    <!-- nut -->
    <line x1="26" y1="40" x2="214" y2="40" stroke="currentColor" stroke-width="10"/>

    <!-- points (circles) -->
    <!-- position 3, cord 5 -->
    <circle cx="66"  cy="150" r="11" fill="currentColor" />
    <!-- position 2, cord 4 -->
    <circle cx="102" cy="110" r="11" fill="currentColor" />
    <!-- position 1, cord 2 -->
    <circle cx="174" cy="70"  r="11" fill="currentColor" />

    <!-- (X and O) -->
    <g stroke="currentColor" stroke-width="3" stroke-linecap="round" fill="none">
      <!-- position 0, cord 6 -->
      <line x1="22" y1="15" x2="38" y2="35"/>
      <line x1="38" y1="15" x2="22" y2="35"/>
      <!-- position 0, cord 3 -->
      <circle cx="138" cy="25" r="10"/>
      <!-- position 0, cord 1 -->
      <circle cx="210" cy="25" r="10"/>
    </g>
  </symbol>

  <symbol id="Cm" viewBox="0 0 240 260" preserveAspectRatio="xMinYMin meet">
    <!-- vertical and horizontal lines -->
    <g fill="none" stroke="currentColor" stroke-width="3" stroke-linecap="round" stroke-linejoin="round">
      <!-- chords -->
      <line x1="30"  y1="50" x2="30"  y2="240"/>
      <line x1="66"  y1="50" x2="66"  y2="240"/>
      <line x1="102" y1="50" x2="102" y2="240"/>
      <line x1="138" y1="50" x2="138" y2="240"/>
      <line x1="174" y1="50" x2="174" y2="240"/>
      <line x1="210" y1="50" x2="210" y2="240"/>

      <!-- 5 horizontal lines -->
      <line x1="30" y1="50"  x2="210" y2="50"/>
      <line x1="30" y1="90"  x2="210" y2="90"/>
      <line x1="30" y1="130" x2="210" y2="130"/>
      <line x1="30" y1="170" x2="210" y2="170"/>
      <line x1="30" y1="210" x2="210" y2="210"/>
    </g>

    <!-- fret number -->
    <text x="0" y="84" font-size="42" fill="currentColor">3</text>

    <!-- barre fret 1 -->
    <rect x="58" y="62" width="152" height="12" rx="6" ry="6" fill="currentColor"/>

    <!-- extra fingers from 3rd fret -->
    <!-- position 3, cord 4 -->
    <circle cx="102" cy="150" r="11" fill="currentColor" />
    <!-- position 3, cord 3 -->
    <circle cx="138" cy="150" r="11" fill="currentColor" />
    <!-- position 2, cord 2 -->
    <circle cx="174" cy="110" r="11" fill="currentColor" />

    <!-- (X) -->
    <g stroke="currentColor" stroke-width="3" stroke-linecap="round" fill="none">
        <!-- position 0, cord 6 -->
        <line x1="22" y1="15" x2="38" y2="35"/>
        <line x1="38" y1="15" x2="22" y2="35"/>
    </g>

  </symbol>

  <symbol id="C7" viewBox="0 0 240 260" preserveAspectRatio="xMinYMin meet">
    
    <!-- vertical and horizontal lines -->
    <g fill="none" stroke="currentColor" stroke-width="3" stroke-linecap="round" stroke-linejoin="round">
      <!-- chords -->
      <line x1="30"  y1="50" x2="30"  y2="240"/>
      <line x1="66"  y1="50" x2="66"  y2="240"/>
      <line x1="102" y1="50" x2="102" y2="240"/>
      <line x1="138" y1="50" x2="138" y2="240"/>
      <line x1="174" y1="50" x2="174" y2="240"/>
      <line x1="210" y1="50" x2="210" y2="240"/>

      <!-- 5 horizontal lines -->
      <line x1="30" y1="50"  x2="210" y2="50"/>
      <line x1="30" y1="90"  x2="210" y2="90"/>
      <line x1="30" y1="130" x2="210" y2="130"/>
      <line x1="30" y1="170" x2="210" y2="170"/>
      <line x1="30" y1="210" x2="210" y2="210"/>
    </g>

    <!-- fret number -->
    <text x="0" y="84" font-size="42" fill="currentColor">3</text>

    <!-- barre fret 1 -->
    <rect x="58" y="62" width="152" height="12" rx="6" ry="6" fill="currentColor"/>

    <!-- extra fingers from 3rd fret -->
    <!-- position 3, cord 4 -->
    <circle cx="102" cy="150" r="11" fill="currentColor" />
    <!-- position 3, cord 2 -->
    <circle cx="174" cy="150" r="11" fill="currentColor" />

    <!-- (X) -->
    <g stroke="currentColor" stroke-width="3" stroke-linecap="round" fill="none">
        <!-- position 0, cord 6 -->
        <line x1="22" y1="15" x2="38" y2="35"/>
        <line x1="38" y1="15" x2="22" y2="35"/>
    </g>

  </symbol>


  <!-- C minor 7 (Cm7) : X 1 3 1 3 4 3 -->
  <symbol id="Cm7" viewBox="0 0 240 260" preserveAspectRatio="xMinYMin meet">
    
    <!-- vertical and horizontal lines -->
    <g fill="none" stroke="currentColor" stroke-width="3" stroke-linecap="round" stroke-linejoin="round">
      <!-- chords -->
      <line x1="30"  y1="50" x2="30"  y2="240"/>
      <line x1="66"  y1="50" x2="66"  y2="240"/>
      <line x1="102" y1="50" x2="102" y2="240"/>
      <line x1="138" y1="50" x2="138" y2="240"/>
      <line x1="174" y1="50" x2="174" y2="240"/>
      <line x1="210" y1="50" x2="210" y2="240"/>

      <!-- 5 horizontal lines -->
      <line x1="30" y1="50"  x2="210" y2="50"/>
      <line x1="30" y1="90"  x2="210" y2="90"/>
      <line x1="30" y1="130" x2="210" y2="130"/>
      <line x1="30" y1="170" x2="210" y2="170"/>
      <line x1="30" y1="210" x2="210" y2="210"/>
    </g>

    <!-- fret number -->
    <text x="0" y="84" font-size="42" fill="currentColor">3</text>

    <!-- barre fret 1 -->
    <rect x="58" y="62" width="152" height="12" rx="6" ry="6" fill="currentColor"/>

    <!-- extra fingers from 3rd fret -->
    <!-- position 3, cord 4 -->
    <circle cx="102" cy="150" r="11" fill="currentColor" />
    <!-- position 2, cord 2 -->
    <circle cx="174" cy="110" r="11" fill="currentColor" />

    <!-- (X) -->
    <g stroke="currentColor" stroke-width="3" stroke-linecap="round" fill="none">
        <!-- position 0, cord 6 -->
        <line x1="22" y1="15" x2="38" y2="35"/>
        <line x1="38" y1="15" x2="22" y2="35"/>
    </g>

  </symbol>

  <!-- C major 7 (Cmaj7) : X 3 2 0 0 0 -->
  <symbol id="Cmaj7" viewBox="0 0 240 260" preserveAspectRatio="xMinYMin meet">

    <!-- vertical and horizontal lines -->
    <g fill="none" stroke="currentColor" stroke-width="3" stroke-linecap="round" stroke-linejoin="round">

      <!-- cords -->
      <line x1="30"  y1="50" x2="30"  y2="240"/>
      <line x1="66"  y1="50" x2="66"  y2="240"/>
      <line x1="102" y1="50" x2="102" y2="240"/>
      <line x1="138" y1="50" x2="138" y2="240"/>
      <line x1="174" y1="50" x2="174" y2="240"/>
      <line x1="210" y1="50" x2="210" y2="240"/>

      <!-- 4 horizontal lines -->
      <line x1="30" y1="90"  x2="210" y2="90"/>
      <line x1="30" y1="130" x2="210" y2="130"/>
      <line x1="30" y1="170" x2="210" y2="170"/>
      <line x1="30" y1="210" x2="210" y2="210"/>
    </g>

    <!-- nut -->
    <line x1="30" y1="40" x2="210" y2="40" stroke="currentColor" stroke-width="10"/>

    <!-- extra fingers -->
    <!-- position 3, cord 5 -->
    <circle cx="66"  cy="150" r="11" fill="currentColor"/>
    <!-- position 2, cord 4 -->
    <circle cx="102" cy="110" r="11" fill="currentColor"/>

    <!-- (X and O) -->
    <g stroke="currentColor" stroke-width="3" fill="none">
      <!-- position 0, cord 6 -->
      <line x1="22" y1="15" x2="38" y2="35"/>
      <line x1="38" y1="15" x2="22" y2="35"/>
      <!-- position 0, cord 3 -->
      <circle cx="138" cy="25" r="10"/>
      <!-- position 0, cord 2 -->
      <circle cx="174" cy="25" r="10"/>
      <!-- position 0, cord 1 -->
      <circle cx="210" cy="25" r="10"/>
    </g>
  </symbol>

  <!-- C9 : X 3 2 0 3 3 -->
  <symbol id="C9" viewBox="0 0 240 260" preserveAspectRatio="xMinYMin meet">
    
    <!-- vertical and horizontal lines -->
    <g fill="none" stroke="currentColor" stroke-width="3" stroke-linecap="round" stroke-linejoin="round">
      <!-- chords -->
      <line x1="30"  y1="50" x2="30"  y2="240"/>
      <line x1="66"  y1="50" x2="66"  y2="240"/>
      <line x1="102" y1="50" x2="102" y2="240"/>
      <line x1="138" y1="50" x2="138" y2="240"/>
      <line x1="174" y1="50" x2="174" y2="240"/>
      <line x1="210" y1="50" x2="210" y2="240"/>

      <!-- 4 horizontal lines -->
      <line x1="30" y1="90"  x2="210" y2="90"/>
      <line x1="30" y1="130" x2="210" y2="130"/>
      <line x1="30" y1="170" x2="210" y2="170"/>
      <line x1="30" y1="210" x2="210" y2="210"/>
    </g>

    <!-- nut -->
    <line x1="30" y1="40" x2="210" y2="40" stroke="currentColor" stroke-width="10"/>

    <!-- extra fingers -->
    <!-- position 3, cord 5 -->
    <circle cx="66"  cy="150" r="11" fill="currentColor"/>
    <!-- position 2, cord 4 -->
    <circle cx="102" cy="110" r="11" fill="currentColor"/>
    <!-- position 3, cord 2 -->
    <circle cx="174" cy="150" r="11" fill="currentColor"/>
    <!-- position 3, cord 1 -->
    <circle cx="210" cy="150" r="11" fill="currentColor"/> 

    <!-- (X) and O -->
    <g stroke="currentColor" stroke-width="3" stroke-linecap="round" fill="none">
      <!-- position 0, cord 6 -->
      <line x1="22" y1="15" x2="38" y2="35"/>
      <line x1="38" y1="15" x2="22" y2="35"/>
      <!-- position 0, cord 3 -->
      <circle cx="138" cy="25" r="10"/>
    </g>
  </symbol>

  <!-- Csus2 : X 3 0 0 1 0 -->
  <symbol id="Csus2" viewBox="0 0 240 260" preserveAspectRatio="xMinYMin meet">

    <!-- vertical and horizontal lines -->
    <g fill="none" stroke="currentColor" stroke-width="3" stroke-linecap="round" stroke-linejoin="round">
      <!-- chords -->
      <line x1="30"  y1="50" x2="30"  y2="240"/>
      <line x1="66"  y1="50" x2="66"  y2="240"/>
      <line x1="102" y1="50" x2="102" y2="240"/>
      <line x1="138" y1="50" x2="138" y2="240"/>
      <line x1="174" y1="50" x2="174" y2="240"/>
      <line x1="210" y1="50" x2="210" y2="240"/>
      <!-- 4 horizontal lines -->
      <line x1="30" y1="90"  x2="210" y2="90"/>
      <line x1="30" y1="130" x2="210" y2="130"/>
      <line x1="30" y1="170" x2="210" y2="170"/>
      <line x1="30" y1="210" x2="210" y2="210"/>
    </g>

    <!-- nut -->
    <line x1="30" y1="40" x2="210" y2="40" stroke="currentColor" stroke-width="10"/>

    <!-- extra fingers -->
    <!-- position 3, cord 5 -->
    <circle cx="66"  cy="150" r="11" fill="currentColor"/>
    <!-- position 1, cord 2 -->
    <circle cx="174" cy="70"  r="11" fill="currentColor"/>

    <!-- (X and O) -->
    <g stroke="currentColor" stroke-width="3" stroke-linecap="round" fill="none">
      <!-- position 0, cord 6 -->
      <line x1="22" y1="15" x2="38" y2="35"/>
      <line x1="38" y1="15" x2="22" y2="35"/>
      <!-- position 0, cord 4 -->
      <circle cx="102" cy="25" r="10"/>
      <!-- position 0, cord 3 -->
      <circle cx="138" cy="25" r="10"/>
      <!-- position 0, cord 1 -->
      <circle cx="210" cy="25" r="10"/>
    </g>
  </symbol>

  <!-- Csus4 : X 3 3 0 1 0 -->
  <symbol id="Csus4" viewBox="0 0 240 260" preserveAspectRatio="xMinYMin meet">

    <!-- vertical and horizontal lines -->
    <g fill="none" stroke="currentColor" stroke-width="3" stroke-linecap="round" stroke-linejoin="round">
      <!-- chords -->
      <line x1="30"  y1="50" x2="30"  y2="240"/>
      <line x1="66"  y1="50" x2="66"  y2="240"/>
      <line x1="102" y1="50" x2="102" y2="240"/>
      <line x1="138" y1="50" x2="138" y2="240"/>
      <line x1="174" y1="50" x2="174" y2="240"/>
      <line x1="210" y1="50" x2="210" y2="240"/>
      <!-- 4 horizontal lines -->
      <line x1="30" y1="90"  x2="210" y2="90"/>
      <line x1="30" y1="130" x2="210" y2="130"/>
      <line x1="30" y1="170" x2="210" y2="170"/>
      <line x1="30" y1="210" x2="210" y2="210"/>
    </g>

    <!-- nut -->
    <line x1="30" y1="40" x2="210" y2="40" stroke="currentColor" stroke-width="10"/>

    <!-- barre fret 1 from cord 2 to cord 1 -->
    <rect x="164" y="62" width="56" height="12" rx="6" ry="6" fill="currentColor"/>

    <!-- extra fingers -->
    <!-- position 3, cord 5 -->
    <circle cx="66"  cy="150" r="11" fill="currentColor"/>
    <!-- position 3, cord 4 -->
    <circle cx="102" cy="150" r="11" fill="currentColor"/>

    <!-- 
    <circle cx="174" cy="70"  r="11" fill="currentColor"/> 
    <circle cx="210" cy="70"  r="11" fill="currentColor"/> -->

    <!-- (X and O) -->
    <g stroke="currentColor" stroke-width="3" stroke-linecap="round" fill="none">
      <!-- position 0, cord 6 -->
      <line x1="22" y1="15" x2="38" y2="35"/>
      <line x1="38" y1="15" x2="22" y2="35"/>
      <!-- position 0, cord 3 -->
      <circle cx="138" cy="25" r="10"/>
    </g>
  </symbol>














  <symbol id="D" viewBox="0 0 240 260" preserveAspectRatio="xMinYMin meet">
    <!-- vertical and horizontal lines -->
    <g fill="none" stroke="currentColor" stroke-width="3" stroke-linecap="round" stroke-linejoin="round">
      <!-- chords -->
      <line x1="30"  y1="50" x2="30"  y2="240"/>
      <line x1="66"  y1="50" x2="66"  y2="240"/>
      <line x1="102" y1="50" x2="102" y2="240"/>
      <line x1="138" y1="50" x2="138" y2="240"/>
      <line x1="174" y1="50" x2="174" y2="240"/>
      <line x1="210" y1="50" x2="210" y2="240"/>

      <!-- 4 horizontal lines -->
      <line x1="30" y1="90"  x2="210" y2="90"/>
      <line x1="30" y1="130" x2="210" y2="130"/>
      <line x1="30" y1="170" x2="210" y2="170"/>
      <line x1="30" y1="210" x2="210" y2="210"/>
    </g>

    <!-- nut -->
    <line x1="26" y1="40" x2="214" y2="40" stroke="currentColor" stroke-width="10"/>

    <!-- points (circles) -->
    <!-- position 2, cord 3 -->
    <circle cx="138" cy="110" r="11" fill="currentColor" />
    <!-- position 3, cord 2 -->
    <circle cx="174" cy="150" r="11" fill="currentColor" />
    <!-- position 2, cord 1 -->
    <circle cx="210" cy="110" r="11" fill="currentColor" />

    <!-- (X and O) -->
    <g stroke="currentColor" stroke-width="3" stroke-linecap="round" fill="none">
      <!-- position 0, cord 6 -->
      <line x1="22" y1="15" x2="38" y2="35"/>
      <line x1="38" y1="15" x2="22" y2="35"/>
      <!-- position 0, cord 5 -->
      <line x1="58" y1="15" x2="74" y2="35"/>
      <line x1="74" y1="15" x2="58" y2="35"/>
      <!-- position 0, cord 4 -->
      <circle cx="102" cy="25" r="10"/>
    </g>
  </symbol>

  

  <symbol id="Dm" viewBox="0 0 240 260" preserveAspectRatio="xMinYMin meet">
    <!-- vertical and horizontal lines -->
    <g fill="none" stroke="currentColor" stroke-width="3" stroke-linecap="round" stroke-linejoin="round">
      <!-- chords -->
      <line x1="30"  y1="50" x2="30"  y2="240"/>
      <line x1="66"  y1="50" x2="66"  y2="240"/>
      <line x1="102" y1="50" x2="102" y2="240"/>
      <line x1="138" y1="50" x2="138" y2="240"/>
      <line x1="174" y1="50" x2="174" y2="240"/>
      <line x1="210" y1="50" x2="210" y2="240"/>

      <!-- 4 horizontal lines -->
      <line x1="30" y1="90"  x2="210" y2="90"/>
      <line x1="30" y1="130" x2="210" y2="130"/>
      <line x1="30" y1="170" x2="210" y2="170"/>
      <line x1="30" y1="210" x2="210" y2="210"/>
    </g>

    <!-- nut -->
    <line x1="26" y1="40" x2="214" y2="40" stroke="currentColor" stroke-width="10"/>

    <!-- points (circles) -->
    <!-- position 2, cord 3 -->
    <circle cx="138" cy="110" r="11" fill="currentColor" />
    <!-- position 3, cord 2 -->
    <circle cx="174" cy="150" r="11" fill="currentColor" />
    <!-- position 1, cord 1 -->
    <circle cx="210" cy="70"  r="11" fill="currentColor" />

    <!-- (X and O) -->
    <g stroke="currentColor" stroke-width="3" stroke-linecap="round" fill="none">
      <!-- position 0, cord 6 -->
      <line x1="22" y1="15" x2="38" y2="35"/>
      <line x1="38" y1="15" x2="22" y2="35"/>
      <!-- position 0, cord 5 -->
      <line x1="58" y1="15" x2="74" y2="35"/>
      <line x1="74" y1="15" x2="58" y2="35"/>
      <!-- position 0, cord 4 -->
      <circle cx="102" cy="25" r="10"/>
    </g>
  </symbol>

  <symbol id="D7" viewBox="0 0 240 260" preserveAspectRatio="xMinYMin meet">
    <!-- vertical and horizontal lines -->
    <g fill="none" stroke="currentColor" stroke-width="3" stroke-linecap="round" stroke-linejoin="round">
      <!-- chords -->
      <line x1="30"  y1="50" x2="30"  y2="240"/>
      <line x1="66"  y1="50" x2="66"  y2="240"/>
      <line x1="102" y1="50" x2="102" y2="240"/>
      <line x1="138" y1="50" x2="138" y2="240"/>
      <line x1="174" y1="50" x2="174" y2="240"/>
      <line x1="210" y1="50" x2="210" y2="240"/>

      <!-- 4 horizontal lines -->
      <line x1="30" y1="90"  x2="210" y2="90"/>
      <line x1="30" y1="130" x2="210" y2="130"/>
      <line x1="30" y1="170" x2="210" y2="170"/>
      <line x1="30" y1="210" x2="210" y2="210"/>
    </g>

    <!-- nut -->
    <line x1="26" y1="40" x2="214" y2="40" stroke="currentColor" stroke-width="10"/>

    <!-- points (circles) -->
    <!-- position 2, cord 3 -->
    <circle cx="138" cy="110" r="11" fill="currentColor" />
    <!-- position 1, cord 2 -->
    <circle cx="174" cy="70"  r="11" fill="currentColor" />
    <!-- position 2, cord 1 -->
    <circle cx="210" cy="110" r="11" fill="currentColor" />

    <!-- (X) -->
    <g stroke="currentColor" stroke-width="3" stroke-linecap="round" fill="none">
      <!-- position 0, cord 6 -->
      <line x1="22" y1="15" x2="38" y2="35"/>
      <line x1="38" y1="15" x2="22" y2="35"/>
      <!-- position 0, cord 5 -->
      <line x1="58" y1="15" x2="74" y2="35"/>
      <line x1="74" y1="15" x2="58" y2="35"/>
      <!-- position 0, cord 4 -->
      <circle cx="102" cy="25" r="10"/>
    </g>
  </symbol>


  <symbol id="E" viewBox="0 0 240 260" preserveAspectRatio="xMinYMin meet">
    <!-- vertical and horizontal lines -->
    <g fill="none" stroke="currentColor" stroke-width="3" stroke-linecap="round" stroke-linejoin="round">
      <!-- chords -->
      <line x1="30"  y1="50" x2="30"  y2="240"/>
      <line x1="66"  y1="50" x2="66"  y2="240"/>
      <line x1="102" y1="50" x2="102" y2="240"/>
      <line x1="138" y1="50" x2="138" y2="240"/>
      <line x1="174" y1="50" x2="174" y2="240"/>
      <line x1="210" y1="50" x2="210" y2="240"/>

      <!-- 4 horizontal lines -->
      <line x1="30" y1="90"  x2="210" y2="90"/>
      <line x1="30" y1="130" x2="210" y2="130"/>
      <line x1="30" y1="170" x2="210" y2="170"/>
      <line x1="30" y1="210" x2="210" y2="210"/>
    </g>

    <!-- nut -->
    <line x1="26" y1="40" x2="214" y2="40" stroke="currentColor" stroke-width="10"/>

    <!-- points (circles) -->
    <!-- position 2, cord 5 -->
    <circle cx="66"  cy="110" r="11" fill="currentColor" />
    <!-- position 2, cord 4 -->
    <circle cx="102" cy="110" r="11" fill="currentColor" />
    <!-- position 1, cord 3 -->
    <circle cx="138" cy="70"  r="11" fill="currentColor" />

    <!-- (X and O) -->
    <g stroke="currentColor" stroke-width="3" stroke-linecap="round" fill="none">
      <!-- position 0, cord 6 -->
      <circle cx="22"  cy="25" r="10"/>
      <!-- position 0, cord 2 -->
      <circle cx="174" cy="25" r="10"/>
      <!-- position 0, cord 1 -->
      <circle cx="210" cy="25" r="10"/>
    </g>
    
  </symbol>

  <symbol id="Em" viewBox="0 0 240 260" preserveAspectRatio="xMinYMin meet">
    <!-- vertical and horizontal lines -->
    <g fill="none" stroke="currentColor" stroke-width="3" stroke-linecap="round" stroke-linejoin="round">
      <!-- chords -->
      <line x1="30"  y1="50" x2="30"  y2="240"/>
      <line x1="66"  y1="50" x2="66"  y2="240"/>
      <line x1="102" y1="50" x2="102" y2="240"/>
      <line x1="138" y1="50" x2="138" y2="240"/>
      <line x1="174" y1="50" x2="174" y2="240"/>
      <line x1="210" y1="50" x2="210" y2="240"/>

      <!-- 4 horizontal lines -->
      <line x1="30" y1="90"  x2="210" y2="90"/>
      <line x1="30" y1="130" x2="210" y2="130"/>
      <line x1="30" y1="170" x2="210" y2="170"/>
      <line x1="30" y1="210" x2="210" y2="210"/>
    </g>

    <!-- nut -->
    <line x1="26" y1="40" x2="214" y2="40" stroke="currentColor" stroke-width="10"/>

    <!-- points (circles) -->
    <!-- position 2, cord 5 -->
    <circle cx="66"  cy="110" r="11" fill="currentColor" />
    <!-- position 2, cord 4 -->
    <circle cx="102" cy="110" r="11" fill="currentColor" />

    <!-- (X and O) -->
    <g stroke="currentColor" stroke-width="3" stroke-linecap="round" fill="none">
      <!-- position 0, cord 6 -->
      <circle cx="22"  cy="25" r="10"/>
      <!-- position 0, cord 3 -->
      <circle cx="138" cy="25" r="10"/>
      <!-- position 0, cord 2 -->
      <circle cx="174" cy="25" r="10"/>
      <!-- position 0, cord 1 -->
      <circle cx="210" cy="25" r="10"/>
    </g>
  </symbol>

  <symbol id="E7" viewBox="0 0 240 260" preserveAspectRatio="xMinYMin meet">
    <!-- vertical and horizontal lines -->
    <g fill="none" stroke="currentColor" stroke-width="3" stroke-linecap="round" stroke-linejoin="round">
      <!-- chords -->
      <line x1="30"  y1="50" x2="30"  y2="240"/>
      <line x1="66"  y1="50" x2="66"  y2="240"/>
      <line x1="102" y1="50" x2="102" y2="240"/>
      <line x1="138" y1="50" x2="138" y2="240"/>
      <line x1="174" y1="50" x2="174" y2="240"/>
      <line x1="210" y1="50" x2="210" y2="240"/>

      <!-- 4 horizontal lines -->
      <line x1="30" y1="90"  x2="210" y2="90"/>
      <line x1="30" y1="130" x2="210" y2="130"/>
      <line x1="30" y1="170" x2="210" y2="170"/>
      <line x1="30" y1="210" x2="210" y2="210"/>
    </g>

    <!-- nut -->
    <line x1="26" y1="40" x2="214" y2="40" stroke="currentColor" stroke-width="10"/>

    <!-- points (circles) -->
    <!-- position 2, cord 5 -->
    <circle cx="66"  cy="110" r="11" fill="currentColor" />
    <!-- position 1, cord 3 -->
    <circle cx="138" cy="70"  r="11" fill="currentColor" />

    <!-- (X and O) -->
    <g stroke="currentColor" stroke-width="3" stroke-linecap="round" fill="none">
      <!-- position 0, cord 6 -->
      <circle cx="22"  cy="25" r="10"/>
      <!-- position 0, cord 4 -->
      <circle cx="102" cy="25" r="10"/>
      <!-- position 0, cord 2 -->
      <circle cx="174" cy="25" r="10"/>
      <!-- position 0, cord 1 -->
      <circle cx="210" cy="25" r="10"/>
    </g>
  </symbol>

  <symbol id="F" viewBox="0 0 240 260" preserveAspectRatio="xMinYMin meet">
    <!-- vertical and horizontal lines -->
    <g fill="none" stroke="currentColor" stroke-width="3" stroke-linecap="round" stroke-linejoin="round">
      <!-- strings -->
      <line x1="30"  y1="50" x2="30"  y2="240"/>
      <line x1="66"  y1="50" x2="66"  y2="240"/>
      <line x1="102" y1="50" x2="102" y2="240"/>
      <line x1="138" y1="50" x2="138" y2="240"/>
      <line x1="174" y1="50" x2="174" y2="240"/>
      <line x1="210" y1="50" x2="210" y2="240"/>

      <!-- frets -->
      <line x1="30" y1="90"  x2="210" y2="90"/>
      <line x1="30" y1="130" x2="210" y2="130"/>
      <line x1="30" y1="170" x2="210" y2="170"/>
      <line x1="30" y1="210" x2="210" y2="210"/>
    </g>

    <!-- nut -->
    <line x1="26" y1="40" x2="214" y2="40" stroke="currentColor" stroke-width="10"/>

    <!-- barre -->
    <rect x="22" y="62" width="196" height="12" rx="6" ry="6" fill="currentColor"/>

    <!-- extra fingers -->
    <!-- 3er traste, 5ª cord -->
    <circle cx="66" cy="150" r="11" fill="currentColor" />
    <!-- 3er traste, 4ª cord -->
    <circle cx="102" cy="150" r="11" fill="currentColor" />
    <!-- 2º traste, 3ª cord -->
    <circle cx="138" cy="110" r="11" fill="currentColor" />
  </symbol>

  <symbol id="Fm" viewBox="0 0 240 260" preserveAspectRatio="xMinYMin meet">
    <!-- vertical and horizontal lines -->
    <g fill="none" stroke="currentColor" stroke-width="3" stroke-linecap="round" stroke-linejoin="round">
      <!-- strings -->
      <line x1="30"  y1="50" x2="30"  y2="240"/>
      <line x1="66"  y1="50" x2="66"  y2="240"/>
      <line x1="102" y1="50" x2="102" y2="240"/>
      <line x1="138" y1="50" x2="138" y2="240"/>
      <line x1="174" y1="50" x2="174" y2="240"/>
      <line x1="210" y1="50" x2="210" y2="240"/>

      <!-- frets -->
      <line x1="30" y1="90"  x2="210" y2="90"/>
      <line x1="30" y1="130" x2="210" y2="130"/>
      <line x1="30" y1="170" x2="210" y2="170"/>
      <line x1="30" y1="210" x2="210" y2="210"/>
    </g>

    <!-- nut -->
    <line x1="26" y1="40" x2="214" y2="40" stroke="currentColor" stroke-width="10"/>

    <!-- barre -->
    <rect x="22" y="62" width="196" height="12" rx="6" ry="6" fill="currentColor"/>

    <!-- extra fingers -->
    <!-- 3er traste, 5ª cord -->
    <circle cx="66" cy="150" r="11" fill="currentColor" />
    <!-- 3er traste, 4ª cord -->
    <circle cx="102" cy="150" r="11" fill="currentColor" />
    
  </symbol>

  <symbol id="F7" viewBox="0 0 240 260" preserveAspectRatio="xMinYMin meet">
    <!-- vertical and horizontal lines -->
    <g fill="none" stroke="currentColor" stroke-width="3" stroke-linecap="round" stroke-linejoin="round">
      <!-- strings -->
      <line x1="30"  y1="50" x2="30"  y2="240"/>
      <line x1="66"  y1="50" x2="66"  y2="240"/>
      <line x1="102" y1="50" x2="102" y2="240"/>
      <line x1="138" y1="50" x2="138" y2="240"/>
      <line x1="174" y1="50" x2="174" y2="240"/>
      <line x1="210" y1="50" x2="210" y2="240"/>

      <!-- frets -->
      <line x1="30" y1="90"  x2="210" y2="90"/>
      <line x1="30" y1="130" x2="210" y2="130"/>
      <line x1="30" y1="170" x2="210" y2="170"/>
      <line x1="30" y1="210" x2="210" y2="210"/>
    </g>

    <!-- nut -->
    <line x1="26" y1="40" x2="214" y2="40" stroke="currentColor" stroke-width="10"/>

    <!-- barre -->
    <rect x="22" y="62" width="196" height="12" rx="6" ry="6" fill="currentColor"/>

    <!-- extra fingers -->
    <!-- position 3, cord 5 -->
    <circle cx="66"  cy="150" r="11" fill="currentColor" />
    <!-- position 2, cord 3 -->
    <circle cx="138" cy="110" r="11" fill="currentColor" />
  </symbol>

  <symbol id="G" viewBox="0 0 240 260" preserveAspectRatio="xMinYMin meet">
    <!-- vertical and horizontal lines -->
    <g fill="none" stroke="currentColor" stroke-width="3" stroke-linecap="round" stroke-linejoin="round">
      <!-- chords -->
      <line x1="30"  y1="50" x2="30"  y2="240"/>
      <line x1="66"  y1="50" x2="66"  y2="240"/>
      <line x1="102" y1="50" x2="102" y2="240"/>
      <line x1="138" y1="50" x2="138" y2="240"/>
      <line x1="174" y1="50" x2="174" y2="240"/>
      <line x1="210" y1="50" x2="210" y2="240"/>

      <!-- 4 horizontal lines -->
      <line x1="30" y1="90"  x2="210" y2="90"/>
      <line x1="30" y1="130" x2="210" y2="130"/>
      <line x1="30" y1="170" x2="210" y2="170"/>
      <line x1="30" y1="210" x2="210" y2="210"/>
    </g>

    <!-- nut -->
    <line x1="26" y1="40" x2="214" y2="40" stroke="currentColor" stroke-width="10"/>

    <!-- points (circles) -->
    <!-- position 3, cord 6 -->
    <circle cx="30"  cy="150" r="11" fill="currentColor" />
    <!-- position 2, cord 5 -->
    <circle cx="66"  cy="110" r="11" fill="currentColor" />
    <!-- position 3, cord 1 -->
    <circle cx="210" cy="150" r="11" fill="currentColor" />

    <!-- (X and O) -->
    <g stroke="currentColor" stroke-width="3" stroke-linecap="round" fill="none">
      <!-- position 0, cord 4 -->
      <circle cx="102" cy="25" r="10"/>
      <!-- position 0, cord 3 -->
      <circle cx="138" cy="25" r="10"/>
      <!-- position 0, cord 2 -->
      <circle cx="174" cy="25" r="10"/>
    </g>
  </symbol>

  <symbol id="Gm" viewBox="0 0 240 260" preserveAspectRatio="xMinYMin meet">
    
    <!-- vertical and horizontal lines -->
    <g fill="none" stroke="currentColor" stroke-width="3" stroke-linecap="round" stroke-linejoin="round">
      <!-- chords -->
      <line x1="30"  y1="50" x2="30"  y2="240"/>
      <line x1="66"  y1="50" x2="66"  y2="240"/>
      <line x1="102" y1="50" x2="102" y2="240"/>
      <line x1="138" y1="50" x2="138" y2="240"/>
      <line x1="174" y1="50" x2="174" y2="240"/>
      <line x1="210" y1="50" x2="210" y2="240"/>

      <!-- 5 horizontal lines -->
      <line x1="30" y1="50"  x2="210" y2="50"/>
      <line x1="30" y1="90"  x2="210" y2="90"/>
      <line x1="30" y1="130" x2="210" y2="130"/>
      <line x1="30" y1="170" x2="210" y2="170"/>
      <line x1="30" y1="210" x2="210" y2="210"/>
    </g>

    <!-- fret number -->
    <text x="0" y="84" font-size="42" fill="currentColor">3</text>

    <!-- barre fret position 1, from cord 1 to 6 -->
    <rect x="22" y="62" width="196" height="12" rx="6" ry="6" fill="currentColor"/>

    <!-- extra fingers from 3rd fret -->
    <!-- position 3, cord 5 -->
    <circle cx="66"  cy="150" r="11" fill="currentColor" />
    <!-- position 3, cord 4 -->
    <circle cx="102" cy="150" r="11" fill="currentColor" />

  </symbol>

  <symbol id="G7" viewBox="0 0 240 260" preserveAspectRatio="xMinYMin meet">
    <!-- vertical and horizontal lines -->
    <g fill="none" stroke="currentColor" stroke-width="3" stroke-linecap="round" stroke-linejoin="round">
      <!-- chords -->
      <line x1="30"  y1="50" x2="30"  y2="240"/>
      <line x1="66"  y1="50" x2="66"  y2="240"/>
      <line x1="102" y1="50" x2="102" y2="240"/>
      <line x1="138" y1="50" x2="138" y2="240"/>
      <line x1="174" y1="50" x2="174" y2="240"/>
      <line x1="210" y1="50" x2="210" y2="240"/>

      <!-- 5 horizontal lines -->
      <line x1="30" y1="50"  x2="210" y2="50"/>
      <line x1="30" y1="90"  x2="210" y2="90"/>
      <line x1="30" y1="130" x2="210" y2="130"/>
      <line x1="30" y1="170" x2="210" y2="170"/>
      <line x1="30" y1="210" x2="210" y2="210"/>
    </g>

    <!-- fret number -->
    <text x="0" y="84" font-size="42" fill="currentColor">3</text>

    <!-- barre fret position 1, from cord 1 to 6 -->
    <rect x="22" y="62" width="196" height="12" rx="6" ry="6" fill="currentColor"/>

    <!-- extra fingers from 3rd fret -->
    <!-- position 3, cord 5 -->
    <circle cx="66"  cy="150" r="11" fill="currentColor" />
    <!-- position 2, cord 3 -->
    <circle cx="138" cy="110" r="11" fill="currentColor" />

  </symbol>

    

  <symbol id="A" viewBox="0 0 240 260" preserveAspectRatio="xMinYMin meet">
    <!-- vertical and horizontal lines -->
    <g fill="none" stroke="currentColor" stroke-width="3" stroke-linecap="round" stroke-linejoin="round">
      <!-- chords -->
      <line x1="30"  y1="50" x2="30"  y2="240"/>
      <line x1="66"  y1="50" x2="66"  y2="240"/>
      <line x1="102" y1="50" x2="102" y2="240"/>
      <line x1="138" y1="50" x2="138" y2="240"/>
      <line x1="174" y1="50" x2="174" y2="240"/>
      <line x1="210" y1="50" x2="210" y2="240"/>

      <!-- 4 horizontal lines -->
      <line x1="30" y1="90"  x2="210" y2="90"/>
      <line x1="30" y1="130" x2="210" y2="130"/>
      <line x1="30" y1="170" x2="210" y2="170"/>
      <line x1="30" y1="210" x2="210" y2="210"/>
    </g>

    <!-- nut -->
    <line x1="26" y1="40" x2="214" y2="40" stroke="currentColor" stroke-width="10"/>

    <!-- points (circles) -->
    <!-- position 2, cord 4 -->
    <circle cx="102" cy="110" r="11" fill="currentColor" />
    <!-- position 2, cord 3 -->
    <circle cx="138" cy="110" r="11" fill="currentColor" />
    <!-- position 2, cord 2 -->
    <circle cx="174" cy="110" r="11" fill="currentColor" />

    <!-- (X and O) -->
    <g stroke="currentColor" stroke-width="3" stroke-linecap="round" fill="none">
      <!-- position 0, cord 6 -->
      <line x1="22" y1="15" x2="38" y2="35"/>
      <line x1="38" y1="15" x2="22" y2="35"/>
      <!-- position 0, cord 5 -->
      <circle cx="66"  cy="25" r="10"/>
      <!-- position 0, cord 1 -->
      <circle cx="210" cy="25" r="10"/>
    </g>
  </symbol>

  <symbol id="Am" viewBox="0 0 240 260" preserveAspectRatio="xMinYMin meet">
    <!-- vertical and horizontal lines -->
    <g fill="none" stroke="currentColor" stroke-width="3" stroke-linecap="round" stroke-linejoin="round">
      <!-- chords -->
      <line x1="30"  y1="50" x2="30"  y2="240"/>
      <line x1="66"  y1="50" x2="66"  y2="240"/>
      <line x1="102" y1="50" x2="102" y2="240"/>
      <line x1="138" y1="50" x2="138" y2="240"/>
      <line x1="174" y1="50" x2="174" y2="240"/>
      <line x1="210" y1="50" x2="210" y2="240"/>

      <!-- 4 horizontal lines -->
      <line x1="30" y1="90"  x2="210" y2="90"/>
      <line x1="30" y1="130" x2="210" y2="130"/>
      <line x1="30" y1="170" x2="210" y2="170"/>
      <line x1="30" y1="210" x2="210" y2="210"/>
    </g>

    <!-- nut -->
    <line x1="26" y1="40" x2="214" y2="40" stroke="currentColor" stroke-width="10"/>

    <!-- points (circles) -->
    <!-- position 2, cord 4 -->
    <circle cx="102" cy="110" r="11" fill="currentColor" />
    <!-- position 2, cord 3 -->
    <circle cx="138" cy="110" r="11" fill="currentColor" />
    <!-- position 1, cord 2 -->
    <circle cx="174" cy="70"  r="11" fill="currentColor" />

    <!-- (X and O) -->
    <g stroke="currentColor" stroke-width="3" stroke-linecap="round" fill="none">
      <!-- position 0, cord 6 -->
      <line x1="22" y1="15" x2="38" y2="35"/>
      <line x1="38" y1="15" x2="22" y2="35"/>
      <!-- position 0, cord 5 -->
      <circle cx="66"  cy="25" r="10"/>
      <!-- position 0, cord 1 -->
      <circle cx="210" cy="25" r="10"/>
    </g>
  </symbol>


  <symbol id="A7" viewBox="0 0 240 260" preserveAspectRatio="xMinYMin meet">
    <!-- vertical and horizontal lines -->
    <g fill="none" stroke="currentColor" stroke-width="3" stroke-linecap="round" stroke-linejoin="round">
      <!-- chords -->
      <line x1="30"  y1="50" x2="30"  y2="240"/>
      <line x1="66"  y1="50" x2="66"  y2="240"/>
      <line x1="102" y1="50" x2="102" y2="240"/>
      <line x1="138" y1="50" x2="138" y2="240"/>
      <line x1="174" y1="50" x2="174" y2="240"/>
      <line x1="210" y1="50" x2="210" y2="240"/>

      <!-- 4 horizontal lines -->
      <line x1="30" y1="90"  x2="210" y2="90"/>
      <line x1="30" y1="130" x2="210" y2="130"/>
      <line x1="30" y1="170" x2="210" y2="170"/>
      <line x1="30" y1="210" x2="210" y2="210"/>
    </g>

    <!-- nut -->
    <line x1="26" y1="40" x2="214" y2="40" stroke="currentColor" stroke-width="10"/>

    <!-- points (circles) -->
    <!-- position 2, cord 4 -->
    <circle cx="102" cy="110" r="11" fill="currentColor" />
    <!-- position 2, cord 2 -->
    <circle cx="174" cy="110" r="11" fill="currentColor" />
    

    <!-- (X and O) -->
    <g stroke="currentColor" stroke-width="3" stroke-linecap="round" fill="none">
      <!-- position 0, cord 6 -->
      <line x1="22" y1="15" x2="38" y2="35"/>
      <line x1="38" y1="15" x2="22" y2="35"/>
      <!-- position 0, cord 5 -->
      <circle cx="66"  cy="25" r="10"/>
      <!-- position 0, cord 3 -->
      <circle cx="138" cy="25" r="10"/>
      <!-- position 0, cord 1 -->
      <circle cx="210" cy="25" r="10"/>
    </g>
  </symbol>




  <symbol id="B" viewBox="0 0 240 260" preserveAspectRatio="xMinYMin meet">
    
    <!-- vertical and horizontal lines -->
    <g fill="none" stroke="currentColor" stroke-width="3" stroke-linecap="round" stroke-linejoin="round">
      <!-- chords -->
      <line x1="30"  y1="50" x2="30"  y2="240"/>
      <line x1="66"  y1="50" x2="66"  y2="240"/>
      <line x1="102" y1="50" x2="102" y2="240"/>
      <line x1="138" y1="50" x2="138" y2="240"/>
      <line x1="174" y1="50" x2="174" y2="240"/>
      <line x1="210" y1="50" x2="210" y2="240"/>

      <!-- 4 horizontal lines -->
      <line x1="30" y1="90"  x2="210" y2="90"/>
      <line x1="30" y1="130" x2="210" y2="130"/>
      <line x1="30" y1="170" x2="210" y2="170"/>
      <line x1="30" y1="210" x2="210" y2="210"/>
    </g>

    <!-- nut -->
    <line x1="26" y1="40" x2="214" y2="40" stroke="currentColor" stroke-width="10"/>

    <!-- barre pos 2 -->
    <rect x="58" y="102" width="152" height="12" rx="6" ry="6" fill="currentColor"/>

    <!-- extra fingers -->
    <!-- 4º traste, 4ª cord -->
    <circle cx="102" cy="190" r="11" fill="currentColor" />
    <!-- 4º traste, 3ª cord -->
    <circle cx="138" cy="190" r="11" fill="currentColor" />
    <!-- 4º traste, 2ª cord -->
    <circle cx="174" cy="190" r="11" fill="currentColor" />

    <!-- (X) -->
    <g stroke="currentColor" stroke-width="3" stroke-linecap="round" fill="none">
      <!-- position 0, cord 6 -->
      <line x1="22" y1="15" x2="38" y2="35"/>
      <line x1="38" y1="15" x2="22" y2="35"/>
    </g>

  </symbol>

  <symbol id="Bm" viewBox="0 0 240 260" preserveAspectRatio="xMinYMin meet">
    
    <!-- vertical and horizontal lines -->
    <g fill="none" stroke="currentColor" stroke-width="3" stroke-linecap="round" stroke-linejoin="round">
      <!-- chords -->
      <line x1="30"  y1="50" x2="30"  y2="240"/>
      <line x1="66"  y1="50" x2="66"  y2="240"/>
      <line x1="102" y1="50" x2="102" y2="240"/>
      <line x1="138" y1="50" x2="138" y2="240"/>
      <line x1="174" y1="50" x2="174" y2="240"/>
      <line x1="210" y1="50" x2="210" y2="240"/>

      <!-- 4 horizontal lines -->
      <line x1="30" y1="90"  x2="210" y2="90"/>
      <line x1="30" y1="130" x2="210" y2="130"/>
      <line x1="30" y1="170" x2="210" y2="170"/>
      <line x1="30" y1="210" x2="210" y2="210"/>
    </g>

    <!-- nut -->
    <line x1="26" y1="40" x2="214" y2="40" stroke="currentColor" stroke-width="10"/>

    <!-- barre pos 2 -->
    <rect x="58" y="102" width="152" height="12" rx="6" ry="6" fill="currentColor"/>

    <!-- extra fingers from 3rd fret -->
    <!-- position 4, cord 4 -->
    <circle cx="102" cy="190" r="11" fill="currentColor" />
    <!-- position 4, cord 3 -->
    <circle cx="138" cy="190" r="11" fill="currentColor" />
    <!-- position 3, cord 2 -->
    <circle cx="174" cy="150" r="11" fill="currentColor" />
  </symbol>

  <symbol id="B7" viewBox="0 0 240 260" preserveAspectRatio="xMinYMin meet">
    
    <!-- vertical and horizontal lines -->
    <g fill="none" stroke="currentColor" stroke-width="3" stroke-linecap="round" stroke-linejoin="round">
      <!-- chords -->
      <line x1="30"  y1="50" x2="30"  y2="240"/>
      <line x1="66"  y1="50" x2="66"  y2="240"/>
      <line x1="102" y1="50" x2="102" y2="240"/>
      <line x1="138" y1="50" x2="138" y2="240"/>
      <line x1="174" y1="50" x2="174" y2="240"/>
      <line x1="210" y1="50" x2="210" y2="240"/>

      <!-- 4 horizontal lines -->
      <line x1="30" y1="90"  x2="210" y2="90"/>
      <line x1="30" y1="130" x2="210" y2="130"/>
      <line x1="30" y1="170" x2="210" y2="170"/>
      <line x1="30" y1="210" x2="210" y2="210"/>
    </g>

    <!-- nut -->
    <line x1="26" y1="40" x2="214" y2="40" stroke="currentColor" stroke-width="10"/>

    <!-- barre pos 2 -->
    <rect x="58" y="102" width="152" height="12" rx="6" ry="6" fill="currentColor"/>

    <!-- extra fingers -->
    <!-- position 4, cord 4 -->
    <circle cx="102" cy="190" r="11" fill="currentColor" />
    <!-- position 4, cord 2 -->
    <circle cx="174" cy="190" r="11" fill="currentColor" />
  </symbol>

  
</svg>