<svg width="424" height="196" viewBox="0 0 424 196" fill="none" xmlns="http://www.w3.org/2000/svg">
<path d="M19.104 172C18.272 172 17.632 171.792 17.184 171.376L11.856 166L2.784 156.976C2.432 156.624 2.208 156.352 2.112 156.16C2.048 155.936 2.016 155.568 2.016 155.056V124.96C2.016 124.416 2.048 124.048 2.112 123.856C2.208 123.664 2.432 123.392 2.784 123.04L9.984 115.744L17.184 108.64C17.472 108.352 17.76 108.176 18.048 108.112C18.336 108.048 18.688 108.016 19.104 108.016H32.544C33.344 108.016 33.744 108.416 33.744 109.216V122.464C33.744 122.752 33.712 123.024 33.648 123.28C33.616 123.504 33.472 123.744 33.216 124L26.88 130.24L21.84 135.376V145.456L27.504 151.216L33.216 156.784C33.472 157.008 33.616 157.248 33.648 157.504C33.712 157.76 33.744 158.032 33.744 158.32V170.8C33.744 171.6 33.344 172 32.544 172H19.104ZM38.9348 172C38.1348 172 37.7348 171.6 37.7348 170.8V109.216C37.7348 108.416 38.1348 108.016 38.9348 108.016H54.1028C54.9028 108.016 55.3028 108.416 55.3028 109.216V119.2H64.6148C65.3508 119.2 65.9908 119.472 66.5348 120.016L76.1348 129.616C76.6468 130.128 76.9028 130.768 76.9028 131.536V170.8C76.9028 171.6 76.5028 172 75.7028 172H60.5348C59.7348 172 59.3348 171.6 59.3348 170.8V138.784C59.3348 137.472 58.6628 136.816 57.3188 136.816H55.3028V170.8C55.3028 171.6 54.9028 172 54.1028 172H38.9348ZM93.2415 172C92.5055 172 91.8655 171.728 91.3215 171.184L81.7215 161.584C81.2095 161.072 80.9535 160.432 80.9535 159.664V131.536C80.9535 130.768 81.2095 130.128 81.7215 129.616L91.3215 120.016C91.8655 119.472 92.5055 119.2 93.2415 119.2H107.834C108.57 119.2 109.21 119.472 109.754 120.016L119.354 129.616C119.866 130.128 120.122 130.768 120.122 131.536V159.664C120.122 160.432 119.866 161.072 119.354 161.584L109.754 171.184C109.21 171.728 108.57 172 107.834 172H93.2415ZM100.442 156.016H100.538C101.178 156.016 101.674 155.84 102.026 155.488C102.378 155.136 102.554 154.64 102.554 154V137.2C102.554 136.56 102.378 136.064 102.026 135.712C101.674 135.36 101.178 135.184 100.538 135.184H100.394C99.7535 135.184 99.2735 135.36 98.9535 135.712C98.6655 136.064 98.5215 136.56 98.5215 137.2V154C98.5215 154.64 98.6815 155.136 99.0015 155.488C99.3535 155.84 99.8335 156.016 100.442 156.016ZM125.372 172C124.572 172 124.172 171.6 124.172 170.8V120.4C124.172 119.6 124.572 119.2 125.372 119.2H137.756C138.3 119.2 138.828 119.472 139.34 120.016L141.692 122.368L144.476 119.776C144.924 119.392 145.436 119.2 146.012 119.2H149.612C150.412 119.2 150.812 119.6 150.812 120.4V136.72C150.812 137.232 150.764 137.584 150.668 137.776C150.604 137.936 150.428 138.112 150.14 138.304L141.74 144.016V170.8C141.74 171.6 141.34 172 140.54 172H125.372ZM165.523 172C164.787 172 164.147 171.728 163.603 171.184L154.003 161.584C153.491 161.072 153.235 160.432 153.235 159.664V131.536C153.235 130.768 153.491 130.128 154.003 129.616L163.603 120.016C164.147 119.472 164.787 119.2 165.523 119.2H170.515C171.251 119.2 171.891 119.472 172.435 120.016L174.835 122.416V109.216C174.835 108.416 175.235 108.016 176.035 108.016H191.203C192.003 108.016 192.403 108.416 192.403 109.216V170.8C192.403 171.6 192.003 172 191.203 172H178.819C178.403 172 178.099 171.92 177.907 171.76C177.715 171.6 177.491 171.408 177.235 171.184L174.835 168.784L172.435 171.184C171.891 171.728 171.251 172 170.515 172H165.523ZM172.723 156.016H172.915C173.555 156.016 174.035 155.84 174.355 155.488C174.675 155.136 174.835 154.64 174.835 154V135.184H172.819C172.179 135.184 171.683 135.36 171.331 135.712C170.979 136.064 170.803 136.56 170.803 137.2V154C170.803 154.64 170.963 155.136 171.283 155.488C171.635 155.84 172.115 156.016 172.723 156.016Z" fill="#F2F2F7"/>
<path d="M208.216 104C207.416 104 207.016 103.6 207.016 102.8V41.216C207.016 40.416 207.416 40.016 208.216 40.016H238.696C239.432 40.016 240.072 40.272 240.616 40.784L250.216 50.384C250.728 50.928 250.984 51.568 250.984 52.304V62.384C250.984 62.704 250.92 62.96 250.792 63.152C250.664 63.344 250.472 63.568 250.216 63.824L242.68 70.544L241.864 71.84L242.68 73.616L250.216 80.336C250.472 80.592 250.664 80.816 250.792 81.008C250.92 81.168 250.984 81.424 250.984 81.776V91.664C250.984 92.432 250.728 93.072 250.216 93.584L240.616 103.184C240.072 103.728 239.432 104 238.696 104H208.216ZM229 88.064C230.28 88.064 231.336 87.664 232.168 86.864C233 86.032 233.416 84.976 233.416 83.696C233.416 82.384 233 81.328 232.168 80.528C231.336 79.696 230.28 79.28 229 79.28C227.72 79.28 226.664 79.696 225.832 80.528C225 81.328 224.584 82.384 224.584 83.696C224.584 84.976 225 86.032 225.832 86.864C226.664 87.664 227.72 88.064 229 88.064ZM228.76 64.496C229.976 64.496 230.968 64.096 231.736 63.296C232.536 62.496 232.936 61.504 232.936 60.32C232.936 59.104 232.536 58.112 231.736 57.344C230.968 56.544 229.976 56.144 228.76 56.144C227.576 56.144 226.584 56.544 225.784 57.344C224.984 58.112 224.584 59.104 224.584 60.32C224.584 61.504 224.984 62.496 225.784 63.296C226.584 64.096 227.576 64.496 228.76 64.496ZM256.216 104C255.416 104 255.016 103.6 255.016 102.8V41.216C255.016 40.416 255.416 40.016 256.216 40.016H271.384C272.184 40.016 272.584 40.416 272.584 41.216V102.8C272.584 103.6 272.184 104 271.384 104H256.216ZM288.867 104C288.131 104 287.491 103.728 286.947 103.184L277.347 93.584C276.835 93.072 276.579 92.432 276.579 91.664V63.536C276.579 62.768 276.835 62.128 277.347 61.616L286.947 52.016C287.491 51.472 288.131 51.2 288.867 51.2H303.459C304.195 51.2 304.835 51.472 305.379 52.016L314.979 61.616C315.491 62.128 315.747 62.768 315.747 63.536V91.664C315.747 92.432 315.491 93.072 314.979 93.584L305.379 103.184C304.835 103.728 304.195 104 303.459 104H288.867ZM296.067 88.016H296.163C296.803 88.016 297.299 87.84 297.651 87.488C298.003 87.136 298.179 86.64 298.179 86V69.2C298.179 68.56 298.003 68.064 297.651 67.712C297.299 67.36 296.803 67.184 296.163 67.184H296.019C295.379 67.184 294.899 67.36 294.579 67.712C294.291 68.064 294.147 68.56 294.147 69.2V86C294.147 86.64 294.307 87.136 294.627 87.488C294.979 87.84 295.459 88.016 296.067 88.016ZM333.717 104C332.853 104 332.213 103.792 331.797 103.376L326.325 97.904L320.565 92.144C320.213 91.792 319.989 91.52 319.893 91.328C319.829 91.104 319.797 90.736 319.797 90.224V64.976C319.797 64.432 319.829 64.064 319.893 63.872C319.989 63.68 320.213 63.408 320.565 63.056L326.277 57.344L331.797 51.824C332.053 51.568 332.325 51.408 332.613 51.344C332.901 51.248 333.269 51.2 333.717 51.2H344.901C345.701 51.2 346.101 51.6 346.101 52.4V65.36C346.101 65.648 346.069 65.904 346.005 66.128C345.973 66.352 345.813 66.608 345.525 66.896L341.637 70.784L337.845 74.576V80.624L341.301 84.08L345.525 88.304C345.813 88.592 345.973 88.848 346.005 89.072C346.069 89.296 346.101 89.552 346.101 89.84V102.8C346.101 103.6 345.701 104 344.901 104H333.717ZM375.18 104C374.924 104 374.636 103.952 374.316 103.856C374.028 103.76 373.836 103.568 373.74 103.28L368.22 85.52H367.74V65.984H368.22L373.74 51.92C373.868 51.632 374.076 51.44 374.364 51.344C374.652 51.248 374.924 51.2 375.18 51.2H389.772C390.572 51.2 390.972 51.6 390.972 52.4V59.216C390.972 59.6 390.94 59.936 390.876 60.224C390.812 60.48 390.7 60.752 390.54 61.04L382.62 75.824V77.456L390.54 94.256C390.668 94.512 390.764 94.784 390.828 95.072C390.924 95.328 390.972 95.664 390.972 96.08V102.8C390.972 103.6 390.572 104 389.772 104H375.18ZM351.372 104C350.572 104 350.172 103.6 350.172 102.8V41.216C350.172 40.416 350.572 40.016 351.372 40.016H366.54C367.34 40.016 367.74 40.416 367.74 41.216V102.8C367.74 103.6 367.34 104 366.54 104H351.372ZM394.685 104C393.885 104 393.485 103.6 393.485 102.8V91.856C393.485 91.12 393.725 90.64 394.205 90.416L403.949 85.28V83.6L394.205 78.32C393.725 78.064 393.485 77.552 393.485 76.784V60.704C393.485 60.448 393.517 60.208 393.581 59.984C393.645 59.728 393.821 59.488 394.109 59.264L404.333 51.776C404.557 51.648 404.797 51.52 405.053 51.392C405.309 51.264 405.581 51.2 405.869 51.2H420.749C421.549 51.2 421.949 51.6 421.949 52.4V63.104C421.949 63.52 421.917 63.856 421.853 64.112C421.821 64.368 421.645 64.576 421.325 64.736L412.349 69.584V71.216L421.133 76.016C421.677 76.272 421.949 76.752 421.949 77.456V92.96C421.949 93.76 421.677 94.4 421.133 94.88L411.725 103.376C411.213 103.792 410.573 104 409.805 104H394.685Z" fill="#6155F5"/>
<rect x="10" y="25" width="55" height="75" rx="10" fill="#6155F5"/>
<rect x="75" y="45" width="55" height="55" rx="10" fill="#8E8E93"/>
<rect x="140" width="55" height="100" rx="10" fill="#E5E5EA"/>
<rect x="205" y="117" width="219" height="55" rx="10" fill="#F2F2F7"/>
</svg>
