<svg width="445" height="172" viewBox="0 0 445 172" fill="none" xmlns="http://www.w3.org/2000/svg">
<path d="M18.904 172C18.168 172 17.528 171.792 16.984 171.376L9.16 164.224L1.24 153.904C0.887996 153.456 0.663996 153.184 0.567996 153.088C0.471996 152.96 0.423996 152.672 0.423996 152.224V127.744C0.423996 127.296 0.471996 127.008 0.567996 126.88C0.695996 126.752 0.919996 126.48 1.24 126.064L8.584 116.56L16.984 108.64C17.336 108.352 17.608 108.176 17.8 108.112C18.024 108.048 18.392 108.016 18.904 108.016H30.76C31.56 108.016 31.96 108.416 31.96 109.216V116.896C31.96 117.152 31.928 117.424 31.864 117.712C31.832 117.968 31.672 118.192 31.384 118.384L22.36 124.576L16.456 132.16V147.856L22.456 155.44L31.384 161.584C31.64 161.744 31.8 161.936 31.864 162.16C31.928 162.384 31.96 162.624 31.96 162.88V170.8C31.96 171.6 31.56 172 30.76 172H18.904Z" fill="#F2F2F7"/>
<path d="M42.46 172C41.66 172 41.26 171.6 41.26 170.8V109.216C41.26 108.416 41.66 108.016 42.46 108.016H55.276C56.076 108.016 56.476 108.416 56.476 109.216V119.2H68.14C68.876 119.2 69.516 119.472 70.06 120.016L79.66 129.616C80.204 130.128 80.476 130.768 80.476 131.536V170.8C80.476 171.6 80.076 172 79.276 172H66.46C65.66 172 65.26 171.6 65.26 170.8V133.216C65.26 131.872 64.588 131.2 63.244 131.2H56.476V170.8C56.476 171.6 56.076 172 55.276 172H42.46Z" fill="#F2F2F7"/>
<path d="M103.697 172C102.961 172 102.321 171.728 101.777 171.184L92.1775 161.584C91.6335 161.072 91.3615 160.432 91.3615 159.664V131.536C91.3615 130.768 91.6335 130.128 92.1775 129.616L101.777 120.016C102.321 119.472 102.961 119.2 103.697 119.2H118.242C119.01 119.2 119.649 119.472 120.161 120.016L129.762 129.616C130.306 130.128 130.577 130.768 130.577 131.536V159.664C130.577 160.432 130.306 161.072 129.762 161.584L120.161 171.184C119.649 171.728 119.01 172 118.242 172H103.697ZM109.313 160.816H112.674C113.698 160.816 114.402 160.608 114.785 160.192C115.17 159.776 115.361 159.04 115.361 157.984V133.216C115.361 132.16 115.17 131.424 114.785 131.008C114.402 130.592 113.698 130.384 112.674 130.384H109.313C108.257 130.384 107.537 130.592 107.153 131.008C106.769 131.424 106.577 132.16 106.577 133.216V157.984C106.577 159.04 106.769 159.776 107.153 160.192C107.537 160.608 108.257 160.816 109.313 160.816Z" fill="#F2F2F7"/>
<path d="M142.96 172C142.16 172 141.76 171.6 141.76 170.8V120.4C141.76 119.6 142.16 119.2 142.96 119.2H150.256C150.864 119.2 151.392 119.472 151.84 120.016L156.544 125.44L161.776 119.776C162.128 119.392 162.576 119.2 163.12 119.2H168.304C169.104 119.2 169.504 119.6 169.504 120.4V130.72C169.504 131.232 169.472 131.584 169.408 131.776C169.344 131.936 169.168 132.112 168.88 132.304L156.976 141.088V170.8C156.976 171.6 156.576 172 155.776 172H142.96Z" fill="#F2F2F7"/>
<path d="M187.229 172C186.493 172 185.853 171.728 185.309 171.184L175.709 161.584C175.165 161.072 174.893 160.432 174.893 159.664V131.536C174.893 130.768 175.165 130.128 175.709 129.616L185.309 120.016C185.853 119.472 186.493 119.2 187.229 119.2H194.573C195.341 119.2 195.981 119.472 196.493 120.016L198.893 122.416V109.216C198.893 108.416 199.293 108.016 200.093 108.016H212.909C213.709 108.016 214.109 108.416 214.109 109.216V170.8C214.109 171.6 213.709 172 212.909 172H202.925C202.509 172 202.189 171.92 201.965 171.76C201.773 171.6 201.549 171.408 201.293 171.184L198.893 168.784L196.493 171.184C195.981 171.728 195.341 172 194.573 172H187.229ZM192.845 160.816H196.205C197.229 160.816 197.933 160.608 198.317 160.192C198.701 159.776 198.893 159.04 198.893 157.984V130.384H192.845C191.789 130.384 191.069 130.592 190.685 131.008C190.301 131.424 190.109 132.16 190.109 133.216V157.984C190.109 159.04 190.301 159.776 190.685 160.192C191.069 160.608 191.789 160.816 192.845 160.816Z" fill="#F2F2F7"/>
<path d="M202.2 99C201.4 99 201 98.6 201 97.8V36.216C201 35.416 201.4 35.016 202.2 35.016H231.096C231.832 35.016 232.472 35.272 233.016 35.784L242.616 45.384C243.128 45.928 243.384 46.568 243.384 47.304V57.384C243.384 57.704 243.32 57.96 243.192 58.152C243.064 58.344 242.872 58.568 242.616 58.824L235.08 65.544L234.36 67.32L235.08 68.616L242.616 75.336C242.872 75.592 243.064 75.816 243.192 76.008C243.32 76.168 243.384 76.424 243.384 76.776V86.664C243.384 87.432 243.128 88.072 242.616 88.584L233.016 98.184C232.472 98.728 231.832 99 231.096 99H202.2ZM221.304 88.2C223.96 88.2 225.768 87.672 226.728 86.616C227.72 85.56 228.216 83.56 228.216 80.616C228.216 77.64 227.72 75.624 226.728 74.568C225.768 73.512 223.96 72.984 221.304 72.984C218.68 72.984 216.872 73.512 215.88 74.568C214.92 75.624 214.44 77.64 214.44 80.616C214.44 83.56 214.92 85.56 215.88 86.616C216.872 87.672 218.68 88.2 221.304 88.2ZM221.304 60.984C223.96 60.984 225.768 60.456 226.728 59.4C227.72 58.344 228.216 56.344 228.216 53.4C228.216 50.456 227.72 48.456 226.728 47.4C225.768 46.344 223.96 45.816 221.304 45.816C218.68 45.816 216.872 46.344 215.88 47.4C214.92 48.456 214.44 50.456 214.44 53.4C214.44 56.344 214.92 58.344 215.88 59.4C216.872 60.456 218.68 60.984 221.304 60.984ZM255.759 99C254.959 99 254.559 98.6 254.559 97.8V36.216C254.559 35.416 254.959 35.016 255.759 35.016H268.575C269.375 35.016 269.775 35.416 269.775 36.216V97.8C269.775 98.6 269.375 99 268.575 99H255.759ZM292.354 99C291.618 99 290.978 98.728 290.434 98.184L280.834 88.584C280.29 88.072 280.018 87.432 280.018 86.664V58.536C280.018 57.768 280.29 57.128 280.834 56.616L290.434 47.016C290.978 46.472 291.618 46.2 292.354 46.2H306.898C307.666 46.2 308.306 46.472 308.818 47.016L318.418 56.616C318.962 57.128 319.234 57.768 319.234 58.536V86.664C319.234 87.432 318.962 88.072 318.418 88.584L308.818 98.184C308.306 98.728 307.666 99 306.898 99H292.354ZM297.97 87.816H301.33C302.354 87.816 303.058 87.608 303.442 87.192C303.826 86.776 304.018 86.04 304.018 84.984V60.216C304.018 59.16 303.826 58.424 303.442 58.008C303.058 57.592 302.354 57.384 301.33 57.384H297.97C296.914 57.384 296.194 57.592 295.81 58.008C295.426 58.424 295.234 59.16 295.234 60.216V84.984C295.234 86.04 295.426 86.776 295.81 87.192C296.194 87.608 296.914 87.816 297.97 87.816ZM346.016 99C345.376 99 344.736 98.792 344.096 98.376L336.272 93.096L330.896 84.456C330.672 84.04 330.48 83.768 330.32 83.64C330.16 83.48 330.08 83.16 330.08 82.68V62.52C330.08 62.04 330.144 61.72 330.272 61.56C330.4 61.4 330.608 61.112 330.896 60.696L335.792 52.536L344.096 46.824C344.384 46.632 344.672 46.488 344.96 46.392C345.248 46.264 345.6 46.2 346.016 46.2H354.32C355.12 46.2 355.52 46.6 355.52 47.4V56.376C355.52 56.632 355.488 56.904 355.424 57.192C355.392 57.48 355.248 57.704 354.992 57.864L349.52 60.6L345.296 66.12V78.936L349.76 84.024L354.992 87.336C355.312 87.528 355.472 87.768 355.472 88.056C355.504 88.312 355.52 88.568 355.52 88.824V97.8C355.52 98.6 355.12 99 354.32 99H346.016ZM391.744 99C391.328 99 390.992 98.936 390.736 98.808C390.512 98.68 390.368 98.504 390.304 98.28L384.784 76.536H380.32V65.016H384.784L390.304 47.016C390.368 46.76 390.512 46.584 390.736 46.488C390.992 46.36 391.328 46.296 391.744 46.296H403.888C404.688 46.296 405.088 46.696 405.088 47.496V52.584C405.088 53.032 405.056 53.384 404.992 53.64C404.928 53.896 404.832 54.168 404.704 54.456L397.6 70.824V72.456L405.088 90.84C405.248 91.192 405.36 91.512 405.424 91.8C405.488 92.056 405.52 92.344 405.52 92.664V97.8C405.52 98.6 405.12 99 404.32 99H391.744ZM366.304 99C365.504 99 365.104 98.6 365.104 97.8V36.216C365.104 35.416 365.504 35.016 366.304 35.016H379.12C379.92 35.016 380.32 35.416 380.32 36.216V97.8C380.32 98.6 379.92 99 379.12 99H366.304ZM413.847 99C413.047 99 412.647 98.6 412.647 97.8V90.024C412.647 89.288 412.887 88.808 413.367 88.584L423.159 82.776V77.784L413.367 72.504C412.887 72.216 412.647 71.72 412.647 71.016V55.704C412.647 55.352 412.695 55.064 412.791 54.84C412.919 54.616 413.095 54.424 413.319 54.264L423.543 46.776C423.895 46.52 424.183 46.36 424.407 46.296C424.631 46.232 424.855 46.2 425.079 46.2H436.743C437.543 46.2 437.943 46.6 437.943 47.4V54.936C437.943 55.48 437.895 55.848 437.799 56.04C437.735 56.232 437.575 56.392 437.319 56.52L428.247 61.416V66.984L437.943 71.784C438.487 72.008 438.759 72.488 438.759 73.224V87.96C438.759 88.76 438.487 89.4 437.943 89.88L427.719 98.376C427.207 98.792 426.567 99 425.799 99H413.847Z" fill="#6155F5"/>
<rect x="5" y="25" width="55" height="75" rx="10" fill="#6155F5"/>
<rect x="70" y="45" width="55" height="55" rx="10" fill="#8E8E93"/>
<rect x="135" width="55" height="100" rx="10" fill="#E5E5EA"/>
<rect x="226" y="117" width="219" height="55" rx="10" fill="#F2F2F7"/>
</svg>
