<svg width="449" height="172" viewBox="0 0 449 172" fill="none" xmlns="http://www.w3.org/2000/svg">
<path d="M18.904 172C18.168 172 17.528 171.792 16.984 171.376L9.16 164.224L1.24 153.904C0.887996 153.456 0.663996 153.184 0.567996 153.088C0.471996 152.96 0.423996 152.672 0.423996 152.224V127.744C0.423996 127.296 0.471996 127.008 0.567996 126.88C0.695996 126.752 0.919996 126.48 1.24 126.064L8.584 116.56L16.984 108.64C17.336 108.352 17.608 108.176 17.8 108.112C18.024 108.048 18.392 108.016 18.904 108.016H30.76C31.56 108.016 31.96 108.416 31.96 109.216V116.896C31.96 117.152 31.928 117.424 31.864 117.712C31.832 117.968 31.672 118.192 31.384 118.384L22.36 124.576L16.456 132.16V147.856L22.456 155.44L31.384 161.584C31.64 161.744 31.8 161.936 31.864 162.16C31.928 162.384 31.96 162.624 31.96 162.88V170.8C31.96 171.6 31.56 172 30.76 172H18.904Z" fill="#F2F2F7"/>
<path d="M42.46 172C41.66 172 41.26 171.6 41.26 170.8V109.216C41.26 108.416 41.66 108.016 42.46 108.016H55.276C56.076 108.016 56.476 108.416 56.476 109.216V119.2H68.14C68.876 119.2 69.516 119.472 70.06 120.016L79.66 129.616C80.204 130.128 80.476 130.768 80.476 131.536V170.8C80.476 171.6 80.076 172 79.276 172H66.46C65.66 172 65.26 171.6 65.26 170.8V133.216C65.26 131.872 64.588 131.2 63.244 131.2H56.476V170.8C56.476 171.6 56.076 172 55.276 172H42.46Z" fill="#F2F2F7"/>
<path d="M103.697 172C102.961 172 102.321 171.728 101.777 171.184L92.1775 161.584C91.6335 161.072 91.3615 160.432 91.3615 159.664V131.536C91.3615 130.768 91.6335 130.128 92.1775 129.616L101.777 120.016C102.321 119.472 102.961 119.2 103.697 119.2H118.242C119.01 119.2 119.649 119.472 120.161 120.016L129.762 129.616C130.306 130.128 130.577 130.768 130.577 131.536V159.664C130.577 160.432 130.306 161.072 129.762 161.584L120.161 171.184C119.649 171.728 119.01 172 118.242 172H103.697ZM109.313 160.816H112.674C113.698 160.816 114.402 160.608 114.785 160.192C115.17 159.776 115.361 159.04 115.361 157.984V133.216C115.361 132.16 115.17 131.424 114.785 131.008C114.402 130.592 113.698 130.384 112.674 130.384H109.313C108.257 130.384 107.537 130.592 107.153 131.008C106.769 131.424 106.577 132.16 106.577 133.216V157.984C106.577 159.04 106.769 159.776 107.153 160.192C107.537 160.608 108.257 160.816 109.313 160.816Z" fill="#F2F2F7"/>
<path d="M142.96 172C142.16 172 141.76 171.6 141.76 170.8V120.4C141.76 119.6 142.16 119.2 142.96 119.2H150.256C150.864 119.2 151.392 119.472 151.84 120.016L156.544 125.44L161.776 119.776C162.128 119.392 162.576 119.2 163.12 119.2H168.304C169.104 119.2 169.504 119.6 169.504 120.4V130.72C169.504 131.232 169.472 131.584 169.408 131.776C169.344 131.936 169.168 132.112 168.88 132.304L156.976 141.088V170.8C156.976 171.6 156.576 172 155.776 172H142.96Z" fill="#F2F2F7"/>
<path d="M187.229 172C186.493 172 185.853 171.728 185.309 171.184L175.709 161.584C175.165 161.072 174.893 160.432 174.893 159.664V131.536C174.893 130.768 175.165 130.128 175.709 129.616L185.309 120.016C185.853 119.472 186.493 119.2 187.229 119.2H194.573C195.341 119.2 195.981 119.472 196.493 120.016L198.893 122.416V109.216C198.893 108.416 199.293 108.016 200.093 108.016H212.909C213.709 108.016 214.109 108.416 214.109 109.216V170.8C214.109 171.6 213.709 172 212.909 172H202.925C202.509 172 202.189 171.92 201.965 171.76C201.773 171.6 201.549 171.408 201.293 171.184L198.893 168.784L196.493 171.184C195.981 171.728 195.341 172 194.573 172H187.229ZM192.845 160.816H196.205C197.229 160.816 197.933 160.608 198.317 160.192C198.701 159.776 198.893 159.04 198.893 157.984V130.384H192.845C191.789 130.384 191.069 130.592 190.685 131.008C190.301 131.424 190.109 132.16 190.109 133.216V157.984C190.109 159.04 190.301 159.776 190.685 160.192C191.069 160.608 191.789 160.816 192.845 160.816Z" fill="#F2F2F7"/>
<path d="M207.2 104C206.4 104 206 103.6 206 102.8V41.216C206 40.416 206.4 40.016 207.2 40.016H236.096C236.832 40.016 237.472 40.272 238.016 40.784L247.616 50.384C248.128 50.928 248.384 51.568 248.384 52.304V62.384C248.384 62.704 248.32 62.96 248.192 63.152C248.064 63.344 247.872 63.568 247.616 63.824L240.08 70.544L239.36 72.32L240.08 73.616L247.616 80.336C247.872 80.592 248.064 80.816 248.192 81.008C248.32 81.168 248.384 81.424 248.384 81.776V91.664C248.384 92.432 248.128 93.072 247.616 93.584L238.016 103.184C237.472 103.728 236.832 104 236.096 104H207.2ZM226.304 93.2C228.96 93.2 230.768 92.672 231.728 91.616C232.72 90.56 233.216 88.56 233.216 85.616C233.216 82.64 232.72 80.624 231.728 79.568C230.768 78.512 228.96 77.984 226.304 77.984C223.68 77.984 221.872 78.512 220.88 79.568C219.92 80.624 219.44 82.64 219.44 85.616C219.44 88.56 219.92 90.56 220.88 91.616C221.872 92.672 223.68 93.2 226.304 93.2ZM226.304 65.984C228.96 65.984 230.768 65.456 231.728 64.4C232.72 63.344 233.216 61.344 233.216 58.4C233.216 55.456 232.72 53.456 231.728 52.4C230.768 51.344 228.96 50.816 226.304 50.816C223.68 50.816 221.872 51.344 220.88 52.4C219.92 53.456 219.44 55.456 219.44 58.4C219.44 61.344 219.92 63.344 220.88 64.4C221.872 65.456 223.68 65.984 226.304 65.984ZM260.759 104C259.959 104 259.559 103.6 259.559 102.8V41.216C259.559 40.416 259.959 40.016 260.759 40.016H273.575C274.375 40.016 274.775 40.416 274.775 41.216V102.8C274.775 103.6 274.375 104 273.575 104H260.759ZM297.354 104C296.618 104 295.978 103.728 295.434 103.184L285.834 93.584C285.29 93.072 285.018 92.432 285.018 91.664V63.536C285.018 62.768 285.29 62.128 285.834 61.616L295.434 52.016C295.978 51.472 296.618 51.2 297.354 51.2H311.898C312.666 51.2 313.306 51.472 313.818 52.016L323.418 61.616C323.962 62.128 324.234 62.768 324.234 63.536V91.664C324.234 92.432 323.962 93.072 323.418 93.584L313.818 103.184C313.306 103.728 312.666 104 311.898 104H297.354ZM302.97 92.816H306.33C307.354 92.816 308.058 92.608 308.442 92.192C308.826 91.776 309.018 91.04 309.018 89.984V65.216C309.018 64.16 308.826 63.424 308.442 63.008C308.058 62.592 307.354 62.384 306.33 62.384H302.97C301.914 62.384 301.194 62.592 300.81 63.008C300.426 63.424 300.234 64.16 300.234 65.216V89.984C300.234 91.04 300.426 91.776 300.81 92.192C301.194 92.608 301.914 92.816 302.97 92.816ZM351.016 104C350.376 104 349.736 103.792 349.096 103.376L341.272 98.096L335.896 89.456C335.672 89.04 335.48 88.768 335.32 88.64C335.16 88.48 335.08 88.16 335.08 87.68V67.52C335.08 67.04 335.144 66.72 335.272 66.56C335.4 66.4 335.608 66.112 335.896 65.696L340.792 57.536L349.096 51.824C349.384 51.632 349.672 51.488 349.96 51.392C350.248 51.264 350.6 51.2 351.016 51.2H359.32C360.12 51.2 360.52 51.6 360.52 52.4V61.376C360.52 61.632 360.488 61.904 360.424 62.192C360.392 62.48 360.248 62.704 359.992 62.864L354.52 65.6L350.296 71.12V83.936L354.76 89.024L359.992 92.336C360.312 92.528 360.472 92.768 360.472 93.056C360.504 93.312 360.52 93.568 360.52 93.824V102.8C360.52 103.6 360.12 104 359.32 104H351.016ZM396.744 104C396.328 104 395.992 103.936 395.736 103.808C395.512 103.68 395.368 103.504 395.304 103.28L389.784 81.536H385.32V70.016H389.784L395.304 52.016C395.368 51.76 395.512 51.584 395.736 51.488C395.992 51.36 396.328 51.296 396.744 51.296H408.888C409.688 51.296 410.088 51.696 410.088 52.496V57.584C410.088 58.032 410.056 58.384 409.992 58.64C409.928 58.896 409.832 59.168 409.704 59.456L402.6 75.824V77.456L410.088 95.84C410.248 96.192 410.36 96.512 410.424 96.8C410.488 97.056 410.52 97.344 410.52 97.664V102.8C410.52 103.6 410.12 104 409.32 104H396.744ZM371.304 104C370.504 104 370.104 103.6 370.104 102.8V41.216C370.104 40.416 370.504 40.016 371.304 40.016H384.12C384.92 40.016 385.32 40.416 385.32 41.216V102.8C385.32 103.6 384.92 104 384.12 104H371.304ZM418.847 104C418.047 104 417.647 103.6 417.647 102.8V95.024C417.647 94.288 417.887 93.808 418.367 93.584L428.159 87.776V82.784L418.367 77.504C417.887 77.216 417.647 76.72 417.647 76.016V60.704C417.647 60.352 417.695 60.064 417.791 59.84C417.919 59.616 418.095 59.424 418.319 59.264L428.543 51.776C428.895 51.52 429.183 51.36 429.407 51.296C429.631 51.232 429.855 51.2 430.079 51.2H441.743C442.543 51.2 442.943 51.6 442.943 52.4V59.936C442.943 60.48 442.895 60.848 442.799 61.04C442.735 61.232 442.575 61.392 442.319 61.52L433.247 66.416V71.984L442.943 76.784C443.487 77.008 443.759 77.488 443.759 78.224V92.96C443.759 93.76 443.487 94.4 442.943 94.88L432.719 103.376C432.207 103.792 431.567 104 430.799 104H418.847Z" fill="#6155F5"/>
<rect x="5" y="25" width="55" height="75" rx="10" fill="#6155F5"/>
<rect x="70" y="45" width="55" height="55" rx="10" fill="#8E8E93"/>
<rect x="135" width="55" height="100" rx="10" fill="#E5E5EA"/>
<rect x="224" y="117" width="219" height="55" rx="10" fill="#F2F2F7"/>
</svg>
